<svg width="46" height="46" viewBox="0 0 46 46" fill="none" xmlns="http://www.w3.org/2000/svg">
<path d="M38.8125 28.75H35.9375C35.5563 28.75 35.1906 28.9014 34.921 29.171C34.6515 29.4406 34.5 29.8063 34.5 30.1875V40.25H5.75V11.5H18.6875C19.0687 11.5 19.4344 11.3485 19.704 11.079C19.9735 10.8094 20.125 10.4437 20.125 10.0625V7.1875C20.125 6.80625 19.9735 6.44062 19.704 6.17103C19.4344 5.90145 19.0687 5.75 18.6875 5.75H4.3125C3.16875 5.75 2.07185 6.20435 1.2631 7.0131C0.454351 7.82185 0 8.91875 0 10.0625L0 41.6875C0 42.8312 0.454351 43.9281 1.2631 44.7369C2.07185 45.5457 3.16875 46 4.3125 46H35.9375C37.0812 46 38.1781 45.5457 38.9869 44.7369C39.7957 43.9281 40.25 42.8312 40.25 41.6875V30.1875C40.25 29.8063 40.0985 29.4406 39.829 29.171C39.5594 28.9014 39.1937 28.75 38.8125 28.75ZM43.8438 0H32.3438C30.4238 0 29.4643 2.32785 30.8164 3.68359L34.0265 6.89371L12.1289 28.7832C11.9279 28.9836 11.7684 29.2216 11.6596 29.4837C11.5507 29.7458 11.4947 30.0268 11.4947 30.3106C11.4947 30.5944 11.5507 30.8754 11.6596 31.1375C11.7684 31.3996 11.9279 31.6376 12.1289 31.8379L14.1657 33.8711C14.366 34.0721 14.604 34.2316 14.8661 34.3404C15.1282 34.4493 15.4092 34.5053 15.693 34.5053C15.9768 34.5053 16.2578 34.4493 16.5199 34.3404C16.782 34.2316 17.02 34.0721 17.2204 33.8711L39.1072 11.978L42.3164 15.1836C43.6641 16.5312 46 15.5879 46 13.6562V2.15625C46 1.58438 45.7728 1.03593 45.3684 0.631551C44.9641 0.227176 44.4156 0 43.8438 0V0Z" fill="white"/>
</svg>
